<svg xmlns="http://www.w3.org/2000/svg" width="24" height="24" viewBox="0 0 71 55" fill="currentColor">
  <path d="M60.1 4.9A58.5 58.5 0 0 0 45.4.2a.2.2 0 0 0-.2.1 41 41 0 0 0-1.8 3.7 54 54 0 0 0-16.2 0A39 39 0 0 0 25.4.3a.2.2 0 0 0-.2-.1A58.4 58.4 0 0 0 10.5 5a.2.2 0 0 0-.1 0A60 60 0 0 0 .1 45.3a.2.2 0 0 0 .1.2 58.8 58.8 0 0 0 17.7 9 .2.2 0 0 0 .3-.1 42 42 0 0 0 3.6-5.9.2.2 0 0 0-.1-.3 38.8 38.8 0 0 1-5.5-2.6.2.2 0 0 1 0-.4l1.1-.9a.2.2 0 0 1 .2 0 42 42 0 0 0 35.8 0 .2.2 0 0 1 .2 0l1.1.9a.2.2 0 0 1 0 .3 36.4 36.4 0 0 1-5.5 2.7.2.2 0 0 0-.1.3 47 47 0 0 0 3.6 5.8.2.2 0 0 0 .3.1A58.6 58.6 0 0 0 70.4 45.4a.2.2 0 0 0 .1-.1A59.5 59.5 0 0 0 60.2 5a.2.2 0 0 0 0 0zM23.7 37.3c-3.5 0-6.4-3.2-6.4-7.1s2.8-7.1 6.4-7.1 6.5 3.2 6.4 7.1c0 3.9-2.8 7.1-6.4 7.1zm23.6 0c-3.5 0-6.4-3.2-6.4-7.1s2.8-7.1 6.4-7.1 6.5 3.2 6.4 7.1c0 3.9-2.9 7.1-6.4 7.1z"/>
</svg>
